<svg width="155" height="81" viewBox="0 0 155 81" fill="none" xmlns="http://www.w3.org/2000/svg">
<path d="M58.1883 21V6.8H59.9883V21H58.1883ZM42.073 40.8C42.073 39.9333 42.2196 39.0867 42.513 38.26C42.8196 37.42 43.2596 36.66 43.833 35.98C44.4196 35.2867 45.133 34.74 45.973 34.34C46.813 33.9267 47.7663 33.72 48.833 33.72C50.0996 33.72 51.1863 34.0133 52.093 34.6C52.9996 35.1733 53.673 35.9133 54.113 36.82L52.693 37.74C52.413 37.14 52.053 36.6667 51.613 36.32C51.1863 35.96 50.7196 35.7067 50.213 35.56C49.7196 35.4133 49.233 35.34 48.753 35.34C47.9663 35.34 47.2663 35.5 46.653 35.82C46.053 36.14 45.5463 36.5667 45.133 37.1C44.7196 37.6333 44.4063 38.2333 44.193 38.9C43.993 39.5533 43.893 40.2133 43.893 40.88C43.893 41.6133 44.013 42.32 44.253 43C44.5063 43.68 44.853 44.28 45.293 44.8C45.733 45.32 46.253 45.7333 46.853 46.04C47.453 46.3467 48.1063 46.5 48.813 46.5C49.3063 46.5 49.813 46.4133 50.333 46.24C50.853 46.0667 51.3396 45.8 51.793 45.44C52.2463 45.0667 52.6063 44.5867 52.873 44L54.373 44.82C54.0796 45.5267 53.6263 46.1267 53.013 46.62C52.3996 47.1133 51.713 47.4867 50.953 47.74C50.2063 47.9933 49.4663 48.12 48.733 48.12C47.7596 48.12 46.8663 47.9133 46.053 47.5C45.2396 47.0733 44.533 46.5133 43.933 45.82C43.3463 45.1133 42.8863 44.3267 42.553 43.46C42.233 42.58 42.073 41.6933 42.073 40.8ZM72.0416 62.4H67.1416V75H65.3416V62.4H60.4416V60.8H72.0416V62.4Z" fill="#FF7A5A"/>
<path d="M65.1836 10.12V21H63.3836V6.8H64.9036L73.5836 17.9V6.82H75.3836V21H73.7436L65.1836 10.12ZM78.7742 21V6.8H83.6942C85.2142 6.8 86.4809 7.12 87.4942 7.76C88.5209 8.38667 89.2876 9.24 89.7942 10.32C90.3009 11.3867 90.5542 12.5733 90.5542 13.88C90.5542 15.32 90.2742 16.5733 89.7142 17.64C89.1542 18.7067 88.3609 19.5333 87.3342 20.12C86.3076 20.7067 85.0942 21 83.6942 21H78.7742ZM88.7342 13.88C88.7342 12.8133 88.5342 11.8667 88.1342 11.04C87.7476 10.2133 87.1809 9.56667 86.4342 9.1C85.6876 8.63333 84.7742 8.4 83.6942 8.4H80.5742V19.4H83.6942C84.7876 19.4 85.7076 19.16 86.4542 18.68C87.2009 18.1867 87.7676 17.5267 88.1542 16.7C88.5409 15.86 88.7342 14.92 88.7342 13.88ZM93.0906 21V6.8H94.8906V21H93.0906ZM102.606 6.8H104.126L109.926 21H108.006L106.326 16.84H100.366L98.7059 21H96.7859L102.606 6.8ZM105.926 15.44L103.366 8.88L100.726 15.44H105.926ZM113.621 10.12V21H111.821V6.8H113.341L122.021 17.9V6.82H123.821V21H122.181L113.621 10.12ZM62.4858 48.1C61.3524 48.1 60.3991 47.9067 59.6258 47.52C58.8524 47.12 58.2324 46.5867 57.7658 45.92C57.2991 45.24 56.9591 44.4733 56.7458 43.62C56.5324 42.7667 56.4258 41.8867 56.4258 40.98V33.8H58.2258V40.98C58.2258 41.6733 58.2924 42.3533 58.4258 43.02C58.5724 43.6733 58.8058 44.26 59.1258 44.78C59.4458 45.3 59.8791 45.7133 60.4258 46.02C60.9724 46.3267 61.6524 46.48 62.4658 46.48C63.2924 46.48 63.9791 46.3267 64.5258 46.02C65.0724 45.7 65.5058 45.28 65.8258 44.76C66.1458 44.2267 66.3724 43.6333 66.5058 42.98C66.6524 42.3267 66.7258 41.66 66.7258 40.98V33.8H68.5258V40.98C68.5258 41.94 68.4124 42.8533 68.1858 43.72C67.9724 44.5733 67.6258 45.3267 67.1458 45.98C66.6658 46.6333 66.0391 47.1533 65.2658 47.54C64.5058 47.9133 63.5791 48.1 62.4858 48.1ZM71.7234 48V33.8H73.5234V46.4H81.4434V48H71.7234ZM83.4031 48V33.8H85.2031V48H83.4031ZM90.3984 37.12V48H88.5984V33.8H90.1184L98.7984 44.9V33.82H100.598V48H98.9584L90.3984 37.12ZM108.309 33.8H109.829L115.629 48H113.709L112.029 43.84H106.069L104.409 48H102.489L108.309 33.8ZM111.629 42.44L109.069 35.88L106.429 42.44H111.629ZM117.524 48V33.8H123.604C124.231 33.8 124.804 33.9333 125.324 34.2C125.844 34.4533 126.298 34.8 126.684 35.24C127.071 35.6667 127.371 36.1533 127.584 36.7C127.798 37.2333 127.904 37.78 127.904 38.34C127.904 38.9933 127.778 39.6133 127.524 40.2C127.284 40.7867 126.938 41.2867 126.484 41.7C126.044 42.1133 125.524 42.4 124.924 42.56L128.364 48H126.324L123.084 42.9H119.324V48H117.524ZM119.324 41.3H123.624C124.118 41.3 124.544 41.1667 124.904 40.9C125.278 40.62 125.564 40.2533 125.764 39.8C125.978 39.3467 126.084 38.86 126.084 38.34C126.084 37.8067 125.964 37.32 125.724 36.88C125.484 36.4267 125.171 36.0667 124.784 35.8C124.398 35.5333 123.971 35.4 123.504 35.4H119.324V41.3ZM130.584 33.8L134.884 41.2L139.224 33.8H141.184L135.784 42.82V48H133.984V42.78L128.604 33.8H130.584ZM78.4067 60.8H79.9267L85.7267 75H83.8067L82.1267 70.84H76.1667L74.5067 75H72.5867L78.4067 60.8ZM81.7267 69.44L79.1667 62.88L76.5267 69.44H81.7267ZM87.6219 75V60.8H89.4219V73.4H97.3419V75H87.6219ZM108.942 73.4V75H99.3016V60.8H108.762V62.4H101.102V67H107.762V68.5H101.102V73.4H108.942ZM119.751 63.78C119.591 63.5933 119.378 63.4133 119.111 63.24C118.844 63.0667 118.544 62.9133 118.211 62.78C117.878 62.6333 117.511 62.52 117.111 62.44C116.724 62.3467 116.318 62.3 115.891 62.3C114.798 62.3 113.991 62.5067 113.471 62.92C112.951 63.3333 112.691 63.9 112.691 64.62C112.691 65.1267 112.824 65.5267 113.091 65.82C113.358 66.1133 113.764 66.3533 114.311 66.54C114.871 66.7267 115.578 66.92 116.431 67.12C117.418 67.3333 118.271 67.5933 118.991 67.9C119.711 68.2067 120.264 68.62 120.651 69.14C121.038 69.6467 121.231 70.3267 121.231 71.18C121.231 71.86 121.098 72.4533 120.831 72.96C120.578 73.4533 120.218 73.8667 119.751 74.2C119.284 74.52 118.738 74.76 118.111 74.92C117.484 75.0667 116.804 75.14 116.071 75.14C115.351 75.14 114.644 75.0667 113.951 74.92C113.271 74.76 112.624 74.5333 112.011 74.24C111.398 73.9467 110.824 73.58 110.291 73.14L111.151 71.62C111.364 71.8467 111.638 72.0733 111.971 72.3C112.318 72.5133 112.704 72.7133 113.131 72.9C113.571 73.0867 114.044 73.24 114.551 73.36C115.058 73.4667 115.578 73.52 116.111 73.52C117.124 73.52 117.911 73.34 118.471 72.98C119.031 72.6067 119.311 72.0667 119.311 71.36C119.311 70.8267 119.151 70.4 118.831 70.08C118.524 69.76 118.064 69.4933 117.451 69.28C116.838 69.0667 116.091 68.8533 115.211 68.64C114.251 68.4 113.444 68.14 112.791 67.86C112.138 67.5667 111.644 67.1867 111.311 66.72C110.991 66.2533 110.831 65.6467 110.831 64.9C110.831 63.9933 111.051 63.2267 111.491 62.6C111.931 61.9733 112.538 61.5 113.311 61.18C114.084 60.86 114.958 60.7 115.931 60.7C116.571 60.7 117.164 60.7667 117.711 60.9C118.271 61.0333 118.791 61.22 119.271 61.46C119.751 61.7 120.191 61.9867 120.591 62.32L119.751 63.78Z" fill="#262730"/>
<path d="M13.6984 25.8104C13.6286 24.3598 13.1949 22.1798 11.5479 19.918" stroke="#2D605A" stroke-width="2" stroke-miterlimit="10"/>
<path d="M14.2648 25.1261C12.3221 24.9033 10.6071 26.4315 10.6283 28.3932C10.635 29.0223 10.6026 29.6511 10.5313 30.2762C9.8343 36.3927 5.53449 41.2167 0 42.862C0.21175 42.8956 0.424804 42.9258 0.639865 42.9504C8.78096 43.8842 16.1351 38.0196 17.0658 29.8516C17.1199 29.3774 17.151 28.9059 17.1601 28.4381C17.1932 26.751 15.9356 25.3177 14.2648 25.1261Z" fill="#EF5B62"/>
<path d="M19.4534 50.1146C24.892 50.1146 29.3008 45.6912 29.3008 40.2346C29.3008 34.7779 24.892 30.3545 19.4534 30.3545C14.0148 30.3545 9.60596 34.7779 9.60596 40.2346C9.60596 45.6912 14.0148 50.1146 19.4534 50.1146Z" fill="#2DA55D"/>
<path d="M35.9509 51.1962C32.1052 55.0547 25.8701 55.0547 22.0244 51.1962C18.1787 47.3378 18.1787 41.0821 22.0244 37.2236" fill="#55BC7F"/>
<path d="M35.0283 50.2708C31.6974 53.6128 26.2777 53.6128 22.9469 50.2708C19.6161 46.9289 19.616 41.4913 22.9469 38.1494" fill="#FFDE76"/>
<path d="M28.7924 44.0146V44.0624H20.4668V44.4649H28.5316L22.8512 50.1641L23.1281 50.4418L28.7924 44.7588V52.7729C28.9261 52.7759 29.0599 52.7758 29.1936 52.7726V44.4648H29.2411L28.7924 44.0146Z" fill="#55BC7F"/>
</svg>
