<svg width="35" height="35" viewBox="0 0 35 35" fill="none" xmlns="http://www.w3.org/2000/svg">
<path d="M17.5013 13.2637C16.6634 13.2637 15.8443 13.5121 15.1475 13.9777C14.4508 14.4432 13.9078 15.1049 13.5871 15.879C13.2665 16.6532 13.1826 17.505 13.346 18.3269C13.5095 19.1487 13.913 19.9036 14.5055 20.4961C15.098 21.0886 15.8529 21.4921 16.6748 21.6556C17.4966 21.8191 18.3485 21.7352 19.1226 21.4145C19.8968 21.0938 20.5584 20.5508 21.024 19.8541C21.4895 19.1574 21.738 18.3383 21.738 17.5003C21.738 16.944 21.6284 16.393 21.4155 15.879C21.2026 15.365 20.8905 14.898 20.4971 14.5045C20.1037 14.1111 19.6366 13.7991 19.1226 13.5862C18.6086 13.3732 18.0577 13.2637 17.5013 13.2637ZM34.4651 9.07824C34.4561 7.759 34.2131 6.4518 33.7476 5.21741C33.4047 4.31414 32.8741 3.49386 32.1909 2.81068C31.5078 2.12751 30.6875 1.59697 29.7842 1.25408C28.5498 0.788493 27.2426 0.545563 25.9234 0.536575C23.7196 0.416992 23.0705 0.416992 17.5013 0.416992C11.9321 0.416992 11.283 0.416992 9.07922 0.536575C7.75997 0.545563 6.45278 0.788493 5.21839 1.25408C4.31512 1.59697 3.49484 2.12751 2.81166 2.81068C2.12848 3.49386 1.59794 4.31414 1.25505 5.21741C0.789469 6.4518 0.546539 7.759 0.537552 9.07824C0.417969 11.282 0.417969 11.9312 0.417969 17.5003C0.417969 23.0695 0.417969 23.7187 0.537552 25.9224C0.55594 27.2463 0.798542 28.5575 1.25505 29.8003C1.59643 30.6995 2.12652 31.515 2.80964 32.192C3.48988 32.8793 4.31193 33.4098 5.21839 33.7466C6.45278 34.2122 7.75997 34.4551 9.07922 34.4641C11.283 34.5837 11.9321 34.5837 17.5013 34.5837C23.0705 34.5837 23.7196 34.5837 25.9234 34.4641C27.2426 34.4551 28.5498 34.2122 29.7842 33.7466C30.6907 33.4098 31.5127 32.8793 32.193 32.192C32.8761 31.515 33.4062 30.6995 33.7476 29.8003C34.2127 28.5599 34.4556 27.2472 34.4651 25.9224C34.5846 23.7187 34.5846 23.0695 34.5846 17.5003C34.5846 11.9312 34.5846 11.282 34.4651 9.07824ZM30.1259 22.7449C30.0711 23.7991 29.8461 24.8375 29.4596 25.8199C29.128 26.6394 28.635 27.3838 28.0099 28.0089C27.3848 28.634 26.6403 29.127 25.8209 29.4587C24.8292 29.8235 23.785 30.0255 22.7288 30.0566C21.3792 30.0566 21.0205 30.0566 17.5013 30.0566C13.9821 30.0566 13.6234 30.0566 12.2738 30.0566C11.2176 30.0255 10.1734 29.8235 9.18172 29.4587C8.33456 29.1438 7.56953 28.6416 6.9438 27.9895C6.32482 27.3766 5.84679 26.6363 5.54297 25.8199C5.17663 24.8293 4.98026 23.7839 4.96214 22.7278C4.96214 21.3782 4.96214 21.0195 4.96214 17.5003C4.96214 13.9812 4.96214 13.6224 4.96214 12.2728C4.98026 11.2168 5.17663 10.1714 5.54297 9.18074C5.85778 8.33359 6.36002 7.56855 7.01214 6.94283C7.62771 6.32718 8.36729 5.84965 9.18172 5.54199C10.1734 5.1771 11.2176 4.97518 12.2738 4.94408C13.6234 4.94408 13.9821 4.94408 17.5013 4.94408C21.0205 4.94408 21.3792 4.94408 22.7288 4.94408C23.785 4.97518 24.8292 5.1771 25.8209 5.54199C26.668 5.85681 27.4331 6.35904 28.0588 7.01116C28.6778 7.62402 29.1558 8.36439 29.4596 9.18074C29.8245 10.1724 30.0264 11.2166 30.0576 12.2728C30.0576 13.6224 30.0576 13.9812 30.0576 17.5003C30.0576 21.0195 30.1771 21.3782 30.1259 22.7278V22.7449ZM27.3926 10.0349C27.1892 9.48309 26.8685 8.98197 26.4526 8.56611C26.0367 8.15025 25.5356 7.82956 24.9838 7.62616C24.2261 7.36352 23.4281 7.2363 22.6263 7.25033C21.2938 7.25033 20.918 7.25033 17.5013 7.25033C14.0846 7.25033 13.7088 7.25033 12.3763 7.25033C11.5704 7.2582 10.7723 7.40858 10.0188 7.69449C9.47543 7.88866 8.97961 8.19625 8.5643 8.59684C8.14899 8.99742 7.8237 9.48182 7.61005 10.0178C7.36196 10.7787 7.24076 11.5751 7.2513 12.3753C7.2513 13.7078 7.2513 14.0837 7.2513 17.5003C7.2513 20.917 7.2513 21.2928 7.2513 22.6253C7.26824 23.4303 7.41832 24.2269 7.69547 24.9828C7.89887 25.5346 8.21956 26.0358 8.63542 26.4516C9.05128 26.8675 9.5524 27.1882 10.1042 27.3916C10.8331 27.6596 11.6001 27.8096 12.3763 27.8357C13.7088 27.8357 14.0846 27.8357 17.5013 27.8357C20.918 27.8357 21.2938 27.8357 22.6263 27.8357C23.4322 27.8279 24.2303 27.6775 24.9838 27.3916C25.5356 27.1882 26.0367 26.8675 26.4526 26.4516C26.8685 26.0358 27.1892 25.5346 27.3926 24.9828C27.6785 24.2293 27.8288 23.4312 27.8367 22.6253C27.8367 21.2928 27.8367 20.917 27.8367 17.5003C27.8367 14.0837 27.8367 13.7078 27.8367 12.3753C27.8372 11.5686 27.6866 10.769 27.3926 10.0178V10.0349ZM17.5013 24.0262C16.6451 24.0262 15.7974 23.8572 15.0066 23.5291C14.2158 23.2009 13.4975 22.72 12.8929 22.1138C12.2883 21.5076 11.8092 20.788 11.4831 19.9964C11.157 19.2047 10.9903 18.3565 10.9926 17.5003C10.9926 16.2089 11.3757 14.9465 12.0936 13.873C12.8114 12.7995 13.8316 11.963 15.025 11.4696C16.2185 10.9762 17.5315 10.848 18.7978 11.1012C20.0642 11.3544 21.2269 11.9776 22.1389 12.8919C23.0509 13.8063 23.671 14.9707 23.9209 16.2377C24.1708 17.5047 24.0391 18.8174 23.5426 20.0095C23.046 21.2017 22.2069 22.2197 21.1315 22.9347C20.0561 23.6497 18.7927 24.0295 17.5013 24.0262ZM24.3346 12.2557C23.957 12.2158 23.6075 12.0375 23.3535 11.7552C23.0995 11.4728 22.959 11.1065 22.959 10.7268C22.959 10.347 23.0995 9.98072 23.3535 9.69842C23.6075 9.41612 23.957 9.2378 24.3346 9.19783C24.7123 9.2378 25.0618 9.41612 25.3158 9.69842C25.5698 9.98072 25.7103 10.347 25.7103 10.7268C25.7103 11.1065 25.5698 11.4728 25.3158 11.7552C25.0618 12.0375 24.7123 12.2158 24.3346 12.2557Z" fill="#262730"/>
</svg>
