<svg width="35" height="29" viewBox="0 0 35 29" fill="none" xmlns="http://www.w3.org/2000/svg">
<path d="M34.5846 3.90845C33.3005 4.46553 31.9426 4.83379 30.553 5.00178C32.019 4.12595 33.1176 2.74812 33.6451 1.12386C32.2674 1.94397 30.7593 2.52179 29.1863 2.8322C28.1349 1.69201 26.7348 0.933037 25.2056 0.674319C23.6763 0.4156 22.1045 0.671768 20.7365 1.40265C19.3686 2.13352 18.2819 3.29777 17.6469 4.71279C17.0119 6.12781 16.8646 7.71357 17.228 9.22136C14.4424 9.08047 11.7176 8.35516 9.23067 7.09254C6.7437 5.82993 4.55016 4.05826 2.79255 1.89261C2.17608 2.96915 1.85215 4.18831 1.85297 5.42886C1.85078 6.58093 2.13351 7.71567 2.67597 8.73204C3.21843 9.74841 4.00379 10.6149 4.96214 11.2543C3.84826 11.224 2.75819 10.9251 1.78464 10.383V10.4684C1.79298 12.0826 2.35863 13.6444 3.38588 14.8896C4.41314 16.1347 5.83895 16.9868 7.42214 17.3018C6.8127 17.4872 6.17996 17.585 5.54297 17.5922C5.10203 17.587 4.66219 17.5471 4.22755 17.4726C4.6784 18.8612 5.55087 20.0747 6.72356 20.9442C7.89624 21.8138 9.31083 22.2962 10.7705 22.3243C8.30569 24.2637 5.2626 25.3222 2.1263 25.3309C1.55527 25.3328 0.984684 25.2986 0.417969 25.2284C3.62012 27.296 7.35177 28.3935 11.1634 28.3889C13.7937 28.4162 16.4031 27.9191 18.8391 26.9267C21.2752 25.9342 23.489 24.4663 25.3514 22.6087C27.2138 20.7511 28.6874 18.541 29.6861 16.1075C30.6848 13.674 31.1885 11.0659 31.168 8.43553C31.168 8.14511 31.168 7.83761 31.168 7.53011C32.5085 6.53042 33.6647 5.30488 34.5846 3.90845Z" fill="#262730"/>
</svg>
